# xmcd
#
# Track frame offsets:
#	150
#	12297
#	25975
#	40997
#	53595
#	69677
#	86305
#	97827
#	111475
#	127555
#	144085
#	157857
#	168815
#	180745
#	191702
#	201440
#	214582
#	225982
#	239082
#	248252
#	260275
#	273135
#	284227
#	294637
#
# Disc length: 4079 seconds
#
# Revision: 2
# Processed by: cddbd v1.5.2PL0 Copyright (c) Steve Scherf et al.
# Submitted via: audiograbber 1.83.01
#
DISCID=450fed18
DTITLE=Frankie Lane - Rockin' - Hell Bent For Leather
DYEAR=1961
DGENRE=Rock
TTITLE0=By The River Sainte Marie
TTITLE1=(What Did I Do To Be So) Black And Blue
TTITLE2=That's My Desire
TTITLE3=Blue Turning Grey Over You
TTITLE4=That Lucky Old Sun
TTITLE5=That Ain't Right
TTITLE6=Shine
TTITLE7=Rockin' Chair
TTITLE8=We'll Be Together Again
TTITLE9=West End Blues
TTITLE10=Give Me A Kiss For Tomorrow
TTITLE11=On The Sunny Side Of The Street
TTITLE12=Wanted Man
TTITLE13=High Noon (Do Not Forsake Me)
TTITLE14=Gunfight At The O.k. Corral
TTITLE15=Bowie Knife
TTITLE16=Along The Navajo Trail
TTITLE17=The Cry Of The Wild Goose
TTITLE18=Rawhide
TTITLE19=City Boy
TTITLE20=Cool Water
TTITLE21=The 3:10 To Yuma
TTITLE22=The Hanging Tree
TTITLE23=Mule Train
EXTD=Stripped Songwriters From List, not a compilation disc, a combo 2 4 1 CD
EXTT0=
EXTT1=
EXTT2=
EXTT3=
EXTT4=
EXTT5=
EXTT6=
EXTT7=
EXTT8=
EXTT9=
EXTT10=
EXTT11=
EXTT12=
EXTT13=
EXTT14=
EXTT15=
EXTT16=
EXTT17=
EXTT18=
EXTT19=
EXTT20=
EXTT21=
EXTT22=
EXTT23=
PLAYORDER=
